<svg id="Layer_1" data-name="Layer 1" xmlns="http://www.w3.org/2000/svg" viewBox="0 0 403.88 289.13"><defs><style>.cls-1{fill:#d2b498;}.cls-2{fill:none;}</style></defs><path class="cls-1" d="M200.4,254.67h-3.07v-8.14h-8.1v8h-3V234.62h3v8.22h8.06v-8.2h3.14Z"/><path class="cls-1" d="M85.77,254.85c2.27-6.79,4.3-12.94,6.43-19a2.19,2.19,0,0,1,1.66-1.28c.75,0,2,.39,2.2,1,2.26,6.21,4.36,12.51,6.53,18.87-2.12.71-3.64.56-4.16-2.23a2,2,0,0,0-2.32-1.88,13.61,13.61,0,0,1-2.71-.07c-2.06-.33-3.45.35-4,3C88.94,255.71,87.31,254.33,85.77,254.85Zm5.9-8.07h5l-2.54-7.87C93.21,241.92,92.46,244.29,91.67,246.78Z"/><path class="cls-1" d="M224.68,237.9h-7.93v5h6.09v3.27h-6.07v5.29h8.06l.13,3.33c-3.63,0-7.15,0-10.67-.06-.31,0-.87-.84-.88-1.3,0-6.21,0-12.41,0-18.79h11.3Z"/><path class="cls-1" d="M125.71,254.66H114.39v-20h11.19v3.14h-8.12v5.09h6.29v3.17h-6.18v5.43h8C125.63,252.64,125.67,253.51,125.71,254.66Z"/><path class="cls-1" d="M316.15,236.45l-1.37,2.38c-1.32-.46-2.58-1.28-3.8-1.19a3.79,3.79,0,0,0-2.93,1.9c-.66,1.69.83,2.37,1.94,2.87,1.3.58,2.67,1,3.93,1.62a5.28,5.28,0,0,1,2.83,4.86,6,6,0,0,1-2.61,5.35c-2.88,2-7.58,1-10-2.05l1.24-2.33a14.9,14.9,0,0,0,2.9,1.54,7.5,7.5,0,0,0,3.45.22,2.59,2.59,0,0,0,1.64-1.8,3.55,3.55,0,0,0-1.2-2.54,27.26,27.26,0,0,0-4.08-1.85c-2.58-1.2-3.56-2.94-3.37-5.86a5.53,5.53,0,0,1,4.17-5.19C311.4,233.73,313.7,234.33,316.15,236.45Z"/><path class="cls-1" d="M149.4,236.47c-.56.94-1,1.67-1.34,2.26-1.63-.44-3.1-1.17-4.55-1.11-.84,0-1.64,1.33-2.47,2.06.61.89,1.08,2.11,1.86,2.62A34.68,34.68,0,0,0,147,244a5.09,5.09,0,0,1,2.93,5,5.74,5.74,0,0,1-2.75,5.23c-3,1.84-7.35,1-9.94-2l1.33-2.26a20.73,20.73,0,0,0,3.3,1.6,5.61,5.61,0,0,0,3.06.14,2.66,2.66,0,0,0,1.61-1.86,3.49,3.49,0,0,0-1.17-2.55,39.42,39.42,0,0,0-4.64-2.21,5.08,5.08,0,0,1-3-5.43,5.41,5.41,0,0,1,3.52-5.08C144.1,233.57,146.76,234.09,149.4,236.47Z"/><path class="cls-1" d="M293.59,237.61l-1.95,1.81c-4.47-2.51-7.35-2.3-9.24.75a9.27,9.27,0,0,0,.27,9.4c2.22,3.05,5,3.1,9.29.09l1.81,1.94c-3.6,4.56-9.43,4.81-13,.81a12.27,12.27,0,0,1-.54-15C283.72,233,289.44,232.88,293.59,237.61Z"/><path class="cls-1" d="M236.49,237.91V234.6h13.27v3.18h-4.83V254.5h-3.29V237.91Z"/><path class="cls-1" d="M168.8,254.67h-3.19V238h-5v-3.42H173.9v3.3h-5.1Z"/><path class="cls-1" d="M262.4,234.54h2.88v20H262.4Z"/><path class="cls-1" d="M333.21,227.89h-52.1c-.64-1.62-.18-2.41,1.51-2.56a26.87,26.87,0,0,0,3-.51c8-1.73,12.42-6.87,12.5-15.09.1-10.59,0-21.2,0-31.8l-.24-99.7c0-2.64,0-5.28,0-7.94-.22,0-.44-.07-.65-.11-1.37,2.36-2.75,4.72-4.1,7.09-8.45,14.83-16.86,29.68-25.38,44.46-1.06,1.84-1.06,3.07.49,4.53,2.59,2.4,5,5,7.56,7.42,3.11,3,3.5,6,.41,9a32.58,32.58,0,0,1-7.48,5c-5.82,3.12-6.6,7.24-2.07,12.06,2.44,2.58,2.89,5.83,1.13,8.69-.86,1.41-1.83,2.63-3.86,1.71a3.11,3.11,0,0,0-2.18.11,71.57,71.57,0,0,0-9.46,4.76c2.82-.58,5.65-1.15,8.47-1.77,3.17-.69,5.9.58,7,3.34a6,6,0,0,1-2.56,7.64c-2.66,1.65-3.13,2.74-2,5.71a47.86,47.86,0,0,0,2.74,5.39c4.24,8,1.11,15.48-7.59,18-6,1.74-12.17,1.2-18.26.22-5.81-.92-11.58-2.11-17.41-2.85-8.74-1.12-16.34,1.4-22,7l-8-5.76c7.73-7.84,17.4-9.59,28.42-7.12,7,1.59,14.14,3,21.29,4a27.7,27.7,0,0,0,10.44-.78c5.29-1.35,7.08-5.85,4.94-10.91a32.83,32.83,0,0,1-1.92-4.91,5.17,5.17,0,0,1,3.46-6.43,12.17,12.17,0,0,0,2.14-.69,25.11,25.11,0,0,0,2.51-2,56.4,56.4,0,0,1-19.56-8c8.43-3,13.69-9,18.74-14.12-.89-3-2-5.69-2.41-8.48-.34-2.47,1.08-4.44,3.39-5.72a32,32,0,0,0,5-3.31c2.56-2.14,2.38-4.57-.09-6.82-6.47-5.88-13.29-11.43-19.2-17.83a78.48,78.48,0,0,1-18.74-35.29c-2.83-11.78-8.77-22-15.63-31.69-2.56-3.61-5.47-7-8.12-10.52h12.32c2.6,4,5.18,8,7.82,12a145.66,145.66,0,0,1,15,30.78A127.05,127.05,0,0,0,256.24,111c.32.48.71.93,1.32,1.69,1.37-2.21,2.69-4.19,3.88-6.28q16.67-29.25,33.29-58.53c1.32-2.34,2.45-4.79,3.84-7.09a3.43,3.43,0,0,1,2.22-1.6c9.57-.11,19.15-.06,28.85-.06.53,1.77.49,3-1.71,3.25a18.1,18.1,0,0,0-4.11,1.21c-5.23,2.1-7.51,5.63-7.49,11.61q.1,31.82.27,63.62.15,44.52.27,89.08c0,10.87,3.69,15.35,14.5,17.36C332.94,225.51,334,225.8,333.21,227.89Z"/><path class="cls-1" d="M224.52,98.14c-6.8-2-12.29,1.14-17.94,3.36-3.79,1.49-7.56,2.7-11.19,1.08,4.36-2.52,8.88-5.13,13.41-7.72a34.1,34.1,0,0,1,3.8-2c5.3-2.23,6.93-1.58,9.24,2.16.1.16.37.22,1,0,0,0,0,0,0,0l.44.34A6.63,6.63,0,0,0,224.52,98.14Z"/><path class="cls-1" d="M217.15,109l2.26,2.46-.36.58-13.92-5.79.21-.65,2.72.58.38-.41-2.12-.84.67-.83c2.06.87,4.11,1.78,6.19,2.6,5,2,7.6,0,7.3-5.38-.06-1-.24-2.08-.46-3.89,3.63,2.88,5.44,7.27,10.27,7.24-1.62,2-3.43,2.3-8,1.17.51,1,.84,1.64,1.23,2.29s.89,1.37,1.45,2.21l-7.6-2Z"/><path class="cls-1" d="M261.07,140.23c-5.84,4.79-6,5.13-3.75,9.49-2.43-1-3.69-3.12-3.14-5.31C254.8,141.94,257.91,140.05,261.07,140.23Z"/><path class="cls-1" d="M211.94,101.78c4,2.51,4.16,2.49,6.57-.47.78,1.76.1,3.23-1.83,3.94S212.83,104.73,211.94,101.78Z"/><polyline class="cls-2" points="224.75 96.58 223.26 95.42 222.82 95.08 221.22 93.84"/><path class="cls-1" d="M206.46,49.51c-16.53,2.31-18.13,3.76-18.13,28.05v116c0,24.3,1.8,25.17,18.13,27.77v8.1H153.08v-8.1c16.53-2.89,18.13-3.47,18.13-27.77V135.71H103.09v57.85c0,24,1.6,24.88,17.93,27.77v8.1H67.84v-8.1c16.13-2.6,17.93-3.47,17.93-27.77v-116c0-24.29-1.8-25.74-17.93-28.05v-8.1H121v8.1c-15.94,2-17.93,4.05-17.93,28.05v46h68.12v-46c0-24-2.2-26-18.13-28.05v-8.1h53.38Z"/><polyline class="cls-2" points="201.76 218.47 200.67 217.69 192.63 211.93 191.58 211.16"/></svg>